<?xml version="1.0" encoding="UTF-8" standalone="no"?>
<!-- Created with Inkscape (http://www.inkscape.org/) -->

<svg
   width="512"
   height="512"
   viewBox="0 0 512 512"
   version="1.1"
   id="svg1"
   xml:space="preserve"
   inkscape:version="1.3.1 (91b66b0783, 2023-11-16)"
   sodipodi:docname="logo.svg"
   inkscape:export-filename="logo128.png"
   inkscape:export-xdpi="24"
   inkscape:export-ydpi="24"
   xmlns:inkscape="http://www.inkscape.org/namespaces/inkscape"
   xmlns:sodipodi="http://sodipodi.sourceforge.net/DTD/sodipodi-0.dtd"
   xmlns:xlink="http://www.w3.org/1999/xlink"
   xmlns="http://www.w3.org/2000/svg"
   xmlns:svg="http://www.w3.org/2000/svg"><sodipodi:namedview
     id="namedview1"
     pagecolor="#505050"
     bordercolor="#eeeeee"
     borderopacity="1"
     inkscape:showpageshadow="0"
     inkscape:pageopacity="0"
     inkscape:pagecheckerboard="0"
     inkscape:deskcolor="#505050"
     inkscape:document-units="px"
     inkscape:zoom="0.7071068"
     inkscape:cx="490.02499"
     inkscape:cy="446.18437"
     inkscape:window-width="1920"
     inkscape:window-height="1017"
     inkscape:window-x="-8"
     inkscape:window-y="-8"
     inkscape:window-maximized="1"
     inkscape:current-layer="layer1" /><defs
     id="defs1"><linearGradient
       id="linearGradient10"
       x2="249.9"
       y1="191.3"
       y2="191.3"
       gradientUnits="userSpaceOnUse"><stop
         offset="0"
         stop-color="#1b9de2"
         id="stop7"
         style="stop-color:#1b9ee4;stop-opacity:1;" /><stop
         offset=".2"
         stop-color="#1595df"
         id="stop8" /><stop
         offset=".7"
         stop-color="#0680d7"
         id="stop9" /><stop
         offset="1"
         stop-color="#0078d4"
         id="stop10" /></linearGradient><linearGradient
       id="a"
       x2="249.9"
       y1="191.3"
       y2="191.3"
       gradientUnits="userSpaceOnUse"><stop
         offset="0"
         stop-color="#1b9de2"
         id="stop1" /><stop
         offset=".2"
         stop-color="#1595df"
         id="stop2" /><stop
         offset=".7"
         stop-color="#0680d7"
         id="stop3" /><stop
         offset="1"
         stop-color="#0078d4"
         id="stop4" /></linearGradient><linearGradient
       id="b"
       x1="697.3"
       x2="809.9"
       y1="499.2"
       y2="499.2"
       gradientTransform="matrix(0.86199192,0.99862725,-0.99862725,0.86199192,40.313708,-992.33055)"
       xlink:href="#a" /><linearGradient
       id="c"
       x1="143.6"
       x2="393.5"
       y1="249.8"
       y2="249.8"
       gradientTransform="matrix(-1.0146267,0,0,-1.0571534,538.91064,455.2717)"
       gradientUnits="userSpaceOnUse"><stop
         offset="0"
         stop-color="#0c59a4"
         id="stop5" /><stop
         offset="1"
         stop-color="#114a8b"
         id="stop6" /></linearGradient><linearGradient
       inkscape:collect="always"
       xlink:href="#a"
       id="linearGradient2"
       gradientUnits="userSpaceOnUse"
       y1="191.3"
       x2="249.9"
       y2="191.3"
       gradientTransform="matrix(1.0142,0,0,1.0571686,-10.602171,-10.932696)" /><linearGradient
       id="a-1"
       x2="249.89999"
       y1="191.3"
       y2="191.3"
       gradientUnits="userSpaceOnUse"><stop
         offset="0"
         stop-color="#1b9de2"
         id="stop1-1" /><stop
         offset=".2"
         stop-color="#1595df"
         id="stop2-7" /><stop
         offset=".7"
         stop-color="#0680d7"
         id="stop3-3" /><stop
         offset="1"
         stop-color="#0078d4"
         id="stop4-4" /></linearGradient><linearGradient
       inkscape:collect="always"
       xlink:href="#linearGradient10"
       id="linearGradient4"
       gradientTransform="matrix(3.7747361,4.3730743,-4.3730743,3.7747361,-404.60167,-4928.0951)"
       x1="697.3"
       y1="499.2"
       x2="809.9"
       y2="499.2" /></defs><g
     inkscape:label="Layer 1"
     inkscape:groupmode="layer"
     id="layer1"><g
       id="g1"
       inkscape:label="Flow"
       transform="matrix(1.452073,0,0,1.4519994,-21.710141,-21.69487)"
       style="display:none"><path
         id="path6"
         style="fill:url(#linearGradient2);stroke-width:1.03529"
         inkscape:label="r"
         d="m 179.02734,14.955078 c -8.44428,0.104716 -16.97629,0.71686 -25.24414,2.232422 -25.92791,4.581295 -50.3849,16.343143 -70.768838,32.918744 -4.577923,3.712673 -8.974619,7.657678 -13.123128,11.777747 C 63.918833,67.803435 58.35437,74.17232 53.285715,80.821548 44.98024,91.714468 37.903422,103.5358 32.154297,115.9668 c -4.218802,9.17478 -7.778744,18.84388 -10.481778,28.64408 -2.670576,9.70021 -4.589896,19.60957 -5.651933,29.63216 -1.320736,12.26152 -1.015909,24.65882 -1.069185,37.04016 0.03141,52.0918 -0.0015,104.1836 -2.29e-4,156.27539 22.589844,0 45.179687,0 67.769531,0 0.05021,-58.26373 0.03507,-116.52806 0.237155,-174.79129 0.854001,-20.96838 6.901354,-41.9655 18.791282,-59.38059 13.66284,-20.02088 35.12297,-34.514511 58.76781,-39.808572 11.90324,-2.836656 24.21437,-3.359223 36.40532,-3.094042 6.79023,-0.0032 13.58046,-0.0063 20.3707,-0.0095 0,-25.177734 0,-50.355468 0,-75.533203 -12.75521,0.0046 -25.51042,0.0091 -38.26563,0.01367 z" /><path
         id="path8"
         style="fill:url(#c);stroke-width:1.0355"
         inkscape:label="l"
         d="m 299.9043,85.283203 c -0.0571,35.226637 0.0409,70.454837 -0.26115,105.680157 -0.96889,19.31339 -6.36231,38.57277 -16.68995,55.0052 -13.35054,21.3594 -35.42599,36.98571 -59.93289,42.71266 -12.28841,3.06509 -25.03742,3.60549 -37.64922,3.32688 -6.72005,0.004 -13.4401,0.008 -20.16015,0.0114 0,25.17708 0,50.35417 0,75.53125 16.24169,-0.0408 32.48989,0.13183 48.72494,-0.41309 4.11422,-0.29374 8.2236,-0.76312 12.22433,-1.41058 7.75176,-1.22076 15.69227,-3.16292 23.27131,-5.68912 15.239,-5.02308 29.75117,-12.64663 42.78033,-22.10081 23.21503,-16.79065 42.01487,-39.43172 54.98575,-64.9297 4.29775,-8.47428 7.98741,-17.31943 10.94177,-26.29435 5.07488,-15.33357 8.20673,-31.48342 9.06166,-47.67725 0.5155,-10.38155 0.29085,-20.88253 0.34046,-31.31635 0.003,-50.92604 0.006,-101.852082 0.009,-152.778124 -22.5332,0 -45.06641,0 -67.59961,0 -0.0156,23.447266 -0.0312,46.894532 -0.0469,70.341797 z" /></g><path
       d="m 61.14705,4.8515981 c -0.518621,0.5798013 0.647285,2.5257671 3.81397,6.2722319 2.068265,2.390869 3.360646,4.90817 4.91239,9.369423 1.161705,3.360626 2.525769,6.655974 3.042311,7.303194 0.775885,1.033104 0.834944,0.780108 0.900259,-2.32334 v -3.426051 l 4.596114,6.333437 c 6.978573,9.630778 11.311156,14.741352 14.218549,16.809639 1.488443,0.969775 2.395055,1.937562 2.007126,2.066142 -1.03308,0.322534 -10.088301,-4.655193 -14.290237,-7.885138 -2.133605,-1.617085 -4.132283,-2.974872 -4.456964,-2.974872 -0.322558,0 -1.357786,-0.971878 -2.262246,-2.135704 -0.841201,-1.163804 -2.842004,-2.968521 -4.328367,-4.001562 -3.619988,-2.521545 -7.436058,-6.141555 -8.342642,-7.88516 -0.64304,-1.296604 -2.64592,-2.135749 -2.64592,-1.100544 0,1.033083 5.165387,7.948399 9.171194,12.21355 12.280987,13.122189 24.827598,19.649563 58.375213,30.121609 7.11134,2.198962 13.38151,4.395805 13.96339,4.912368 0.51865,0.453257 1.55385,0.8391 2.26437,0.8391 0.64514,0 1.6761,0.320303 2.19268,0.643017 0.84119,0.516562 0.77369,0.653587 -0.19614,0.653587 -0.77587,0 -1.09841,0.379516 -0.96979,1.155379 0.1937,1.163802 3.36275,2.203188 9.43894,3.044409 2.71342,0.387943 3.35858,0.261423 3.35858,-0.51444 0,-1.033082 -1.8743,-1.749906 -4.65304,-1.749906 -1.03311,0 -1.80898,-0.318337 -1.80898,-0.640915 0,-0.387942 0.65357,-0.527134 1.49269,-0.39639 0.77585,0.194136 3.4829,0.645138 5.93909,1.096364 5.81902,0.969755 7.44244,1.619185 7.44244,2.846206 0,1.357763 1.74144,1.939642 2.90312,0.96982 0.64728,-0.581901 0.96985,-0.577678 0.96985,-0.05858 0,0.385798 0.31832,0.710479 0.64094,0.710479 0.38791,0 0.65355,-0.451158 0.65355,-0.969799 0,-1.227064 -0.65146,-1.235488 10.20851,0.446935 6.46415,0.969822 8.85496,1.623406 7.88513,1.946033 -2.06619,0.775863 -0.90233,1.808899 2.00712,1.808899 1.48626,0 2.51942,0.32256 2.51942,0.710524 0,0.581902 1.48432,0.645139 5.16961,0.385841 3.36066,-0.259207 5.30452,-0.196127 5.56385,0.256954 0.25697,0.387921 1.35576,0.579802 2.51944,0.385865 1.0984,-0.194136 4.13445,0.07162 6.59062,0.522819 6.46411,1.229164 23.85146,2.201088 62.76475,3.558853 62.89125,2.196862 108.72619,6.908939 125.92164,12.98512 7.62581,2.713405 19.133,8.534515 21.26662,10.731355 3.36069,3.55464 4.38957,6.4641 4.00159,11.24584 -0.19413,2.39292 -0.19413,4.53078 0,4.72474 1.8765,1.87637 6.01925,-1.81107 6.01925,-5.36567 0,-0.71264 1.34731,-2.4562 3.09295,-3.94262 6.97855,-6.14153 8.01798,-9.57177 7.2442,-23.600545 -0.51863,-9.436861 -0.65356,-10.082021 -4.85337,-23.914711 -5.49427,-18.09992 -6.77825,-20.878686 -13.37094,-27.859341 -7.75657,-8.144459 -14.80679,-12.801731 -24.43966,-16.097059 -2.32547,-0.77584 -7.23998,-2.580559 -10.98865,-4.003729 -5.23492,-2.066099 -8.98564,-2.972701 -16.61352,-4.071146 -10.79462,-1.5517 -33.9988,-2.648043 -41.2388,-1.937499 -2.58475,0.259475 -12.92824,0 -24.24145,-0.710587 -12.86079,-0.710482 -20.74594,-0.969758 -22.62021,-0.583959 -1.61504,0.324857 -4.39585,0.577678 -6.20686,0.64304 -2.65021,0 -3.87303,0.394242 -6.13525,2.074586 -2.65015,1.939644 -4.5308,2.517324 -11.89939,3.746488 -11.89302,1.939664 -19.58633,3.485066 -22.81835,4.585586 -2.5216,0.904483 -6.65597,1.488507 -13.05474,1.876405 -17.51801,1.098421 -27.46932,2.007128 -29.66617,2.719751 -1.48842,0.45118 -7.18094,0.577702 -16.68314,0.383697 -11.5705,-0.259189 -14.5369,-0.126699 -15.11879,0.584003 -0.5819,0.645161 -0.32683,0.839099 1.22493,0.839099 3.81399,0 37.88233,2.652311 38.20487,2.972769 0.32454,0.324548 -5.75569,0.06322 -23.14304,-1.035204 -5.1084,-0.324528 -9.62867,-0.392143 -9.95124,-0.198338 -1.22917,0.775861 -10.41303,0.647285 -19.20261,-0.256954 -10.85784,-1.098446 -21.32569,-2.909513 -31.02188,-5.365695 -4.52444,-1.098426 -9.82897,-1.931243 -13.57758,-2.125183 -6.915299,-0.32258 -14.290177,-2.719775 -24.696857,-7.954724 -6.852075,-3.426025 -7.619492,-3.550403 -7.619492,-0.771637 v 2.125181 L 70.455314,16.03857 C 69.291487,14.680807 67.87473,12.477596 67.29283,11.185215 66.129048,8.7290314 61.792234,4.269921 61.14705,4.8518216 Z m 9.664563,67.2280299 c -12.01112,0.567129 -23.060799,9.923883 -30.992304,26.623936 -4.718431,10.018746 -5.555431,13.900156 -5.880113,27.218396 -0.256976,10.46989 -0.132888,12.60778 1.353519,21.33414 3.16883,18.16319 4.005831,20.29257 10.663882,26.81993 7.045993,6.98278 24.5704,16.55037 34.331948,18.74721 3.360636,0.71261 7.303218,1.61924 8.726308,2.00712 5.428958,1.35778 12.860787,1.86589 31.346547,2.12521 17.77528,0.32254 19.26161,0.26366 21.65248,-0.90027 1.68032,-0.83915 5.24129,-1.49061 10.34761,-1.87642 4.26515,-0.38789 8.78116,-0.96769 10.01031,-1.35564 1.22703,-0.32256 3.88142,-0.65148 5.81902,-0.65148 2.00495,0 4.01208,-0.38372 4.40002,-0.7716 1.54966,-1.54966 8.91403,-3.16886 15.96001,-3.55679 3.94258,-0.19368 7.63427,-0.57554 8.28147,-0.90022 2.13153,-1.1617 1.09624,-1.81108 -2.39294,-1.42312 -2.0029,0.19414 -3.94253,0.0632 -4.65304,-0.32454 -1.03514,-0.64727 -0.71681,-0.7063 1.73943,-0.77162 1.61504,0 4.78373,-0.19612 7.04598,-0.45547 3.48924,-0.32255 3.88352,-0.5228 2.91374,-1.23334 -2.39091,-1.74566 -0.32263,-2.19474 10.40663,-2.19474 9.63083,0 12.4096,-0.45332 9.56545,-1.55174 -0.57971,-0.19414 -2.97907,-0.45539 -5.30664,-0.45539 -2.39085,-0.0632 -3.42389,-0.25109 -2.39085,-0.31637 1.09837,-0.1267 3.43236,-0.58397 5.30666,-0.90657 1.81116,-0.39003 13.18753,-0.84124 25.21128,-0.9698 12.02169,-0.1287 22.22596,-0.26144 22.67925,-0.32685 0.58189,0 0.71254,-0.45329 0.45538,-1.29447 -0.25947,-0.90664 -0.12911,-1.28613 0.58186,-1.28613 0.51651,0 1.74982,-1.03306 2.71973,-2.26222 1.93752,-2.51945 2.44774,-2.39714 3.28897,0.90029 l 0.58397,2.13357 4.65309,0.19834 c 3.68532,0.12868 4.9187,-0.0632 6.14787,-0.96985 0.83903,-0.64513 2.58061,-1.35986 3.87299,-1.61918 l 2.39296,-0.45538 -0.38579,3.75699 c -0.38787,3.03601 -0.32061,3.61791 0.45326,3.35855 0.51865,-0.19412 2.57637,-0.71257 4.64464,-1.16587 l 3.68742,-0.71051 -1.42303,-1.87642 c -0.90651,-1.03515 -2.5848,-2.06612 -4.07113,-2.45198 l -2.58065,-0.65357 3.87512,-0.1267 a 101.45244,101.45244 0 0 1 6.33342,0 c 1.35768,0.0632 2.39294,-0.18729 2.39294,-0.57344 0,-0.38794 -0.38364,-0.71684 -0.77157,-0.78012 -0.45323,-0.0653 -1.87645,-0.13509 -3.10346,-0.20009 -1.22696,-0.12671 -3.29739,-0.83915 -4.52653,-1.54964 -1.22715,-0.77587 -2.77666,-1.41258 -3.35856,-1.41258 -0.64727,0 -1.16585,-0.331 -1.16585,-0.65358 0,-0.45328 1.93965,-0.64301 5.36566,-0.51444 5.23498,0.1937 5.3003,0.19171 5.4943,1.93758 0.25948,2.00287 0.25696,2.00287 1.68039,1.42311 a 1.0499443,1.0499443 0 0 0 0.64297,-1.22495 c -0.38787,-1.03307 0.78004,-1.88276 1.7498,-1.23547 0.38581,0.19368 1.93546,0.45329 3.35858,0.58187 3.48927,0.1937 20.48869,1.55387 24.88452,2.00712 2.3255,0.25698 3.35858,0.64729 3.35858,1.29455 0,1.09841 0.78,1.15744 1.74979,0.18729 0.51652,-0.51657 3.04022,-0.44278 9.17963,0.13931 7.49931,0.71051 8.46913,0.89602 8.46913,1.99444 0,0.77592 0.44905,1.17227 1.48435,1.23548 0.77584,0 3.4914,0.25532 5.94758,0.51445 2.52154,0.25947 4.91029,0.38165 5.29821,0.18995 0.45116,-0.13113 1.87843,-2.06407 3.17091,-4.26094 2.52154,-4.2019 4.65521,-6.85836 5.49639,-6.85836 0.32256,0 0.37942,0.46171 0.18706,0.97824 -0.25948,0.51658 -0.0634,0.96986 0.32454,0.96986 0.45323,0 0.71255,0.51443 0.58392,1.0963 -0.12912,0.77375 0.44908,1.22704 1.93756,1.54961 2.39086,0.51865 3.49349,1.22705 1.8765,1.22705 -0.58189,0 -1.10686,0.38586 -1.10686,0.83915 0,0.45327 3.82028,2.07454 9.37779,3.88352 5.94761,2.00288 9.36938,3.4218 9.36938,4.00367 0,0.64516 -2.00288,0.19413 -7.56038,-1.68031 -13.18493,-4.52442 -18.93224,-5.49426 -18.93224,-3.23201 0,0.96981 1.02895,1.42523 6.00871,2.589 3.22995,0.77585 6.32918,1.35353 6.84784,1.35353 0.45116,0 1.68253,0.71263 2.7176,1.55173 1.03303,0.90657 6.19848,3.03599 11.88677,4.91238 5.75569,1.9397 10.86413,4.00583 11.89937,4.91242 1.03298,0.83912 2.84409,2.00712 4.07113,2.45827 4.07329,1.74574 9.89436,6.97644 14.29024,12.85863 6.33547,8.53241 6.26802,8.21197 2.77663,8.21197 -1.61505,0 -6.21109,-0.45119 -10.21898,-0.96979 -4.00588,-0.51651 -9.04476,-0.97187 -11.17418,-1.03722 -4.52652,-0.12913 -41.50022,0.58611 -55.33287,1.03934 l -9.37993,0.32453 -1.48222,-3.17091 c -0.83905,-1.74578 -3.23202,-4.84489 -5.36562,-6.97853 -3.68327,-3.61998 -3.87299,-3.68954 -4.71424,-2.46041 -0.51646,0.71049 -2.46248,3.42818 -4.33678,5.94972 l -3.41968,4.7142 -4.19979,0.13666 c -2.3276,0 -4.72689,0.0654 -5.30669,0 -1.42299,-0.12714 -1.48219,0.64294 -0.18881,3.03592 l 0.90017,1.80693 -6.59061,0.45535 c -17.97131,1.22695 -56.10248,5.94552 -68.89997,8.59777 -2.84623,0.58184 -8.86129,1.03301 -14.29018,1.09641 -9.6983,0.12914 -10.60065,0.38789 -16.7401,3.94256 -1.10051,0.58185 -1.94389,0.71471 -2.71977,0.32683 -0.71044,-0.45328 -1.35551,-0.32454 -1.80897,0.25697 -0.71048,0.83906 -3.036,1.22288 -20.10074,3.03384 -3.74857,0.38793 -10.01453,1.23123 -14.02035,1.87649 -6.9828,1.16374 -7.37702,1.16374 -11.06029,0 -3.87992,-1.22715 -15.96484,-2.84629 -26.30824,-3.55679 l -5.81898,-0.45541 -3.41969,3.10342 c -1.93965,1.68043 -4.59618,4.58987 -6.01928,6.46415 -1.93961,2.65016 -2.9727,3.49981 -4.19977,3.49981 -2.65019,0 -26.244383,3.67484 -43.374505,6.77828 -18.485759,3.36064 -25.462214,4.01418 -30.891122,2.91368 -5.625016,-1.16159 -5.694578,-1.22909 -5.435256,-8.34052 0.256953,-6.0108 0.195906,-6.20053 -1.355642,-6.97647 -3.554628,-1.80898 -6.978533,-0.78215 -11.631647,3.41974 -1.096297,0.96974 -2.388679,1.42301 -4.199745,1.42301 -1.486386,-0.0634 -4.201912,0.64511 -6.333392,1.68041 l -3.816072,1.74999 0.189936,3.35856 c 0.126698,1.80905 -0.06745,3.93836 -0.455404,4.5856 -0.516518,0.77584 -0.645161,4.204 -0.385819,9.89226 0.259475,6.91529 0.06324,9.43686 -0.839121,12.79749 L 9.7,280.66825 l 3.101347,4.39794 c 6.204815,8.72634 10.604867,15.37811 10.604867,16.08651 0,0.39004 1.931218,2.46462 4.385301,4.59615 10.668107,9.37358 15.194702,11.89514 25.666744,14.09415 11.117162,2.39082 12.926107,2.2601 19.843479,-1.42307 3.166708,-1.74574 6.854181,-4.14287 8.211918,-5.43521 1.680354,-1.55182 6.466236,-4.07118 15.643737,-8.14444 14.286007,-6.33343 16.088647,-7.04602 16.088647,-6.20484 0,0.25697 0.90654,8.98143 2.00711,19.25956 2.26225,21.58921 2.9748,42.27607 2.005,58.17913 -0.77586,12.47495 -1.35777,14.21642 -10.14946,30.76251 -13.638726,25.66253 -29.988779,50.488 -42.335107,64.25533 -2.198964,2.52155 -5.55753,6.85207 -7.431814,9.69619 -3.554671,5.36355 -10.151585,12.54451 -18.363485,19.9131 -2.776687,2.51943 -4.589808,4.65092 -4.395872,5.16751 0.193696,0.51647 2.20531,1.54753 4.467535,2.32337 2.196863,0.83905 4.326266,1.7498 4.71423,2.07459 1.033036,1.03294 2.321262,0.63891 7.105009,-1.9481 l 4.653093,-2.57849 1.878504,1.29441 c 2.262226,1.48631 6.337618,1.6087 9.763622,0.31641 1.357787,-0.51654 4.073293,-1.09623 6.078319,-1.22485 4.005784,-0.38792 6.590608,-1.48223 10.790376,-4.71424 1.551697,-1.16368 3.556726,-2.26218 4.526551,-2.51941 1.876421,-0.38794 18.099969,-16.81602 26.763039,-27.15731 2.71344,-3.16674 9.50011,-10.34134 15.18837,-15.90095 7.95051,-7.88518 11.50516,-10.85367 16.02961,-13.56916 6.52734,-3.87947 11.69691,-8.59369 12.34209,-11.37451 0.25946,-0.96983 1.09633,-2.97911 1.93754,-4.46548 2.00286,-3.42603 4.26721,-12.21139 3.68536,-14.41035 -0.1937,-0.90443 -1.16378,-3.09922 -2.13359,-4.91241 -1.68032,-2.97275 -1.80265,-4.00789 -2.12519,-12.28306 -0.5819,-14.54321 -2.90948,-22.169 -10.27807,-33.60874 -4.26517,-6.59271 -5.3046,-8.92037 -7.95475,-17.45272 -4.39582,-14.6739 -5.68614,-28.44762 -3.48929,-39.2422 1.0331,-5.36568 1.54968,-6.07829 5.88222,-8.59775 2.26014,-1.35783 5.23712,-3.49141 6.66019,-4.78583 l 2.64808,-2.44992 12.54029,-1.42303 c 6.9153,-0.83901 14.6697,-1.87435 17.12589,-2.39084 2.52154,-0.51647 8.07697,-1.68039 12.34422,-2.51945 4.33051,-0.90655 10.47839,-2.45408 13.64716,-3.48927 3.16672,-1.09838 7.62372,-2.39719 9.95131,-2.91583 4.52446,-1.03299 19.97006,-2.5131 20.48657,-1.99445 0.19414,0.19369 0.39003,9.43684 0.32684,20.55612 0,17.45059 -0.19414,22.16902 -1.68041,35.03188 -2.5216,22.04255 -3.04021,28.95149 -3.68745,53.25623 -0.58189,24.17401 -0.76968,25.27031 -4.71425,28.11446 -2.84413,2.06827 -5.7515,1.69079 -14.34926,-2.12307 -4.26505,-1.87653 -13.25284,-5.56603 -20.0395,-8.28156 -6.72343,-2.71552 -16.291,-6.90899 -21.14012,-9.29981 -4.91242,-2.45616 -8.92242,-4.27568 -8.92242,-4.08174 0,0.19412 2.45618,3.3628 5.49427,7.04604 3.03599,3.68536 5.4943,6.85203 5.4943,7.046 0,0.19413 -0.57768,0.39645 -1.35356,0.39645 -1.16379,0 -1.23125,0.12713 -0.3268,1.35357 0.5819,0.83903 0.77796,2.1294 0.58395,3.48717 -0.25917,1.74582 -0.0674,2.33182 1.22283,3.17303 0.84336,0.58187 2.20533,2.19478 3.04653,3.61786 0.77587,1.35573 2.13366,3.09926 2.97273,3.74438 0.84331,0.64723 2.06618,2.2011 2.77876,3.43031 0.64512,1.22715 2.84204,3.48712 4.91246,5.03884 2.06614,1.55163 4.06903,3.55674 4.45486,4.39799 0.3879,0.9697 2.27065,2.38868 4.46751,3.48924 5.10633,2.58475 12.59721,9.17753 13.8243,12.0849 0.71258,1.81111 2.13991,3.23417 6.27646,5.94969 3.29746,2.19686 9.11002,7.23785 15.57418,13.63874 11.76442,11.63373 12.41165,12.02374 21.97925,11.44184 6.20478,-0.4511 9.31036,-1.6191 12.99568,-4.97988 1.48626,-1.35784 3.2953,-2.77451 3.94255,-3.16244 0.6451,-0.38791 2.2601,-2.26011 3.48927,-4.19976 1.22695,-2.00292 3.09924,-4.0733 4.06908,-4.65518 2.71551,-1.61504 7.56257,-8.47549 7.56257,-10.67234 0,-3.23208 1.22696,-5.2919 5.49427,-9.29772 3.74861,-3.49134 4.5308,-4.6657 6.85839,-10.41719 3.61995,-8.7917 4.90397,-14.47155 6.06771,-25.78479 1.4211,-13.96133 1.29871,-30.82999 -0.31633,-41.36529 -2.65017,-17.19545 -12.73422,-65.09653 -15.77238,-74.66409 -2.52153,-7.94839 -4.91234,-18.29182 -4.91234,-21.26664 0,-0.71046 1.34934,-0.77794 6.65173,-0.45328 4.84918,0.32256 8.66098,0.19833 14.22063,-0.64297 6.59271,-0.96975 8.85917,-1.03297 15.84192,-0.38578 4.45913,0.38785 8.27097,0.83482 8.39956,1.02875 0.51651,0.45117 10.47417,32.83711 12.15443,39.42986 3.49141,13.51015 3.55892,14.48418 4.26938,48.483 0.32257,17.77524 0.64085,38.84788 0.7716,46.86376 0.12911,13.508 0.26141,14.99226 1.8765,20.93983 2.06826,7.56261 4.33048,12.47917 8.98353,19.20261 1.8765,2.65015 4.71844,7.30321 6.33551,10.27595 3.23208,6.01294 7.43608,10.98435 12.86712,15.12092 7.10923,5.49427 14.02449,9.95969 18.2918,11.89934 5.10633,2.32546 9.23864,6.00662 13.31195,11.75809 1.68039,2.32761 4.07326,5.50064 5.36566,7.11561 1.29232,1.61699 2.90527,4.07326 3.61787,5.49636 1.22697,2.58481 1.61506,2.84204 8.59775,4.9124 3.2299,0.96765 12.14817,1.15544 17.12586,0.31639 2.77877,-0.45541 3.82034,-1.09626 8.28149,-5.42687 6.00875,-5.81893 8.85497,-9.88801 8.85497,-12.79747 0,-4.52445 0.6387,-5.88223 3.28899,-6.91742 1.68249,-0.64724 2.52155,-1.41897 2.52155,-2.19476 0,-4.0733 -4.26512,-20.49922 -6.46412,-24.76646 -1.42109,-2.84413 -19.9679,-27.91409 -35.5463,-48.14566 -16.54823,-21.3952 -22.36928,-30.71191 -25.79324,-40.79599 -1.09837,-3.42393 -5.23068,-26.88955 -7.81767,-45.18133 -1.87436,-13.12224 -5.49846,-26.11369 -11.18672,-40.52832 -1.93966,-4.91238 -3.29737,-8.91392 -2.9727,-8.91392 1.54967,0 34.8421,9.3082 36.77966,10.27804 1.22904,0.64722 6.27013,3.35221 11.11928,6.06776 4.84911,2.77875 9.56542,4.98193 10.40458,4.98193 0.96974,0 5.03887,2.26225 9.82474,5.49429 l 8.21196,5.49431 4.26934,-0.32684 c 6.1394,-0.58188 7.29478,-0.83907 9.88171,-2.64809 3.68535,-2.52151 5.88642,-2.90945 8.79593,-1.55161 5.62288,2.65019 9.50217,3.10349 6.07827,0.71261 -5.10635,-3.55675 -5.62293,-5.30456 -2.65015,-9.76577 3.55672,-5.42892 3.93623,-5.81264 7.61949,-7.68692 5.8822,-2.97276 6.27433,-3.67902 8.2119,-14.28179 0.9065,-5.16956 2.13152,-10.22108 2.65012,-11.25416 1.4865,-3.10352 1.16586,-5.10007 -1.35357,-7.4909 -1.29445,-1.2291 -3.43025,-4.01428 -4.85338,-6.14787 -2.00293,-3.10346 -2.57847,-4.58563 -2.57847,-6.8479 0,-2.52148 -0.26141,-3.03593 -2.13574,-4.19973 a 27.648534,27.648534 0 0 0 -4.59615,-2.26435 c -2.77874,-0.96979 -7.10288,-5.55538 -6.52106,-6.84785 a 48.818194,48.818194 0 0 0 0.71047,-1.74998 c 0.51866,-1.29233 -4.72049,-4.13652 -9.89225,-5.36571 -5.16962,-1.22692 -5.10424,-1.22906 -4.19973,-2.2622 0.45327,-0.58187 0.44688,-2.58692 0.0599,-6.33549 -1.94033,-17.70997 -9.11075,-30.11747 -21.06912,-36.38763 -2.58483,-1.35773 -4.84707,-2.71547 -5.03889,-3.10134 -1.22916,-1.87639 -16.48292,-7.69537 -24.88454,-9.43893 -2.65015,-0.51655 -7.89355,-1.80684 -11.64215,-2.90524 -3.74861,-1.03311 -9.49589,-2.14207 -12.85654,-2.53003 -9.63076,-0.90656 -22.6223,-3.09923 -26.88954,-4.45698 -2.13361,-0.64725 -7.17464,-1.80894 -11.24792,-2.51947 -4.07114,-0.77585 -7.56255,-1.61497 -7.7586,-1.93749 -0.25698,-0.38798 -1.80902,-0.32894 -3.94258,0.0587 -2.45408,0.4533 -6.13942,0.4575 -11.95631,-0.0587 -4.58978,-0.45331 -15.96629,-0.71688 -25.20921,-0.6536 -14.22062,0.0654 -18.09993,-0.11984 -25.33993,-1.284 -4.65307,-0.77586 -10.92106,-1.3619 -13.89384,-1.3619 -7.11135,-0.0654 -28.06169,-2.19691 -24.311,-2.52161 0.58183,0 2.5194,-0.38158 4.32838,-0.76952 2.97271,-0.64727 3.17089,-0.78429 2.58897,-2.07671 -0.64504,-1.35775 -0.9657,-1.41888 -10.07773,-1.35354 -7.75863,0 -9.56968,0.19832 -10.1516,1.03729 -0.64508,0.84123 -1.29653,0.90233 -4.14074,0.38583 -3.03599,-0.64511 -3.23205,-0.77587 -2.26223,-1.55169 1.03302,-0.77591 1.03721,-0.96985 0.19811,-1.55177 -0.51863,-0.32255 -1.42515,-0.65356 -2.0071,-0.65356 -0.84115,0 -41.24302,-4.0058 -58.04844,-5.74938 -3.29741,-0.38794 -6.20058,-0.76958 -6.39455,-1.02885 -0.1937,-0.19369 0.12869,-0.32488 0.71053,-0.32488 0.64726,0 1.09631,-0.26145 1.09631,-0.58395 0,-0.96986 -3.28899,-1.22285 -7.8155,-0.51445 -3.16673,0.45326 -4.85548,0.44906 -5.89069,-0.0674 -1.22706,-0.5187 -0.83279,-0.57559 1.94811,-0.31638 6.13945,0.6451 3.54828,-0.84544 -2.91586,-1.62339 -3.49139,-0.45117 -7.10923,-0.90662 -8.0137,-1.03523 a 10.246445,10.246445 0 0 1 -2.90736,-0.96983 c -0.64514,-0.38786 -7.7565,-1.60861 -15.77028,-2.70707 -8.01582,-1.09845 -17.003611,-2.72182 -20.041709,-3.62632 -10.472015,-2.9727 -20.096516,-7.82188 -25.656168,-12.79752 l -2.913665,-2.580551 1.037259,-2.460424 c 2.131526,-5.106349 4.847052,-8.079052 9.69406,-10.406682 6.658124,-3.232068 9.698292,-3.75281 22.68979,-4.140753 11.827693,-0.256954 14.610693,-0.769535 13.252903,-2.321282 -0.64727,-0.906562 -9.95127,-2.331762 -14.606432,-2.331762 -2.909492,0 -10.151566,-1.421006 -16.809642,-3.360694 A 25.841702,25.841702 0 0 0 70.811713,72.079306 Z M 257.3918,134.28147 a 6.4324899,6.4324899 0 0 0 -1.42293,0.1077 c -3.8163,0.64717 -6.00892,1.5474 -7.94647,3.16239 l -1.93752,1.55176 3.10341,0.0696 c 3.29741,0 5.03889,-0.64518 7.43185,-2.77661 1.50322,-1.35781 1.76675,-2.03037 0.77157,-2.11471 z m 121.78086,20.05014 c 0.80747,-0.0486 1.71609,0.18731 3.42815,0.67255 1.93963,0.58188 4.06905,0.8454 4.71419,0.65361 0.64721,-0.19613 1.42109,-0.0697 1.68042,0.3837 0.32258,0.58187 -0.64297,0.64936 -3.8751,0.32678 -2.84413,-0.32448 -4.26937,-0.26561 -4.26937,0.18794 0,0.3879 0.77583,0.84329 1.80902,1.0373 4.71843,1.03305 5.49642,1.55383 1.42301,1.16586 -2.32544,-0.25921 -5.81892,-0.44905 -7.7586,-0.51444 -3.36065,0 -3.55043,0.0632 -3.74435,1.68036 -0.19369,1.48637 -0.64722,1.8047 -3.8161,2.45196 -4.32836,0.83914 -3.74223,0.90236 -6.97435,-0.58398 -2.90942,-1.42099 -9.31454,-2.97277 -17.26713,-4.19976 -2.97273,-0.4533 -4.45277,-0.83496 -3.41758,-0.90031 1.09832,0 7.046,0.64724 13.25292,1.55173 11.50508,1.61707 14.73292,1.93757 14.0224,1.22703 -0.19415,-0.19412 -5.23494,-1.35772 -11.24576,-2.52151 l -10.86001,-2.13361 6.33344,-0.0696 c 5.55964,-0.0632 6.53157,0.1351 8.21191,1.3641 1.42322,1.03307 2.13153,1.22912 2.64805,0.71051 0.4533,-0.45118 2.38874,-0.59031 5.42684,-0.39426 4.07118,0.32258 5.1696,0.20013 7.43184,-1.02881 1.32391,-0.67889 2.03668,-1.01837 2.84625,-1.06686 z m -91.64033,10.81152 c 0.32027,-0.009 0.59882,0.0464 0.75906,0.20848 0.26145,0.1937 0.002,0.64513 -0.51228,0.96771 -1.22693,0.77589 -1.74577,0.78011 -2.26222,0.0696 -0.29086,-0.5334 1.05209,-1.21229 2.01557,-1.2439 z m 105.13992,1.89748 c 0.11941,-0.0422 0.33316,0.22144 0.72105,0.77163 0.45114,0.58188 1.41897,1.09633 2.06618,1.09633 1.033,0 1.10471,0.12669 0.26561,0.64302 -0.51648,0.32257 -1.10049,0.58191 -1.2944,0.58191 -1.29255,-0.12869 -1.93761,-0.90236 -1.93761,-2.06615 0.0296,-0.64518 0.0579,-0.98673 0.17955,-1.02674 z m -83.31036,3.80553 c -1.29247,0 -2.19262,1.0963 -2.19262,2.64802 0,0.32257 1.48008,0.58187 3.289,0.58187 3.10338,0 3.23835,-0.0632 2.46248,-1.09628 -1.2923,-1.68037 -2.07246,-2.13361 -3.55886,-2.13361 z m 130.50723,38.5907 c 0.45326,-0.1937 1.55588,0.25306 2.46041,0.89824 1.42306,1.09833 1.42112,1.23117 0.25696,1.16583 -1.80902,0 -3.87933,-1.61292 -2.71763,-2.06616 z"
       id="path4"
       style="fill:#000000;stroke-width:21.0832"
       inkscape:label="Shiki" /><path
       id="path3"
       style="font-variation-settings:normal;opacity:1;vector-effect:none;fill:url(#linearGradient4);fill-opacity:1;stroke-width:5.77695;stroke-linecap:butt;stroke-linejoin:miter;stroke-miterlimit:4;stroke-dasharray:none;stroke-dashoffset:0;stroke-opacity:1;-inkscape-stroke:none;stop-color:#000000;stop-opacity:1"
       inkscape:label="center"
       d="m 62.449145,3.0523195 c -0.51864,0.5798017 0.647926,2.5280894 3.814618,6.2746252 2.068249,2.3908273 3.355536,4.9059203 4.907183,9.3671553 1.161749,3.360646 2.531358,6.656076 3.0479,7.303312 0.77587,1.033113 0.829177,0.777656 0.894535,-2.325814 v -3.424813 l 4.600543,6.332109 c 6.978524,9.630841 11.309448,14.742882 14.216891,16.811059 1.488458,0.969862 2.394269,1.941655 2.006331,2.070301 -1.033088,0.32256 -10.085316,-4.654843 -14.2872,-7.884818 -2.133633,-1.61707 -4.135252,-2.977597 -4.459914,-2.977597 -0.322584,0 -1.357506,-0.970291 -2.261963,-2.134071 -0.841206,-1.163807 -2.839379,-2.973233 -4.325759,-4.006294 -3.619997,-2.521599 -7.438257,-6.141227 -8.344825,-7.884843 -0.643064,-1.296583 -2.645322,-2.134176 -2.645322,-1.098973 0,1.033036 5.163243,7.951817 9.169106,12.21695 12.280977,13.122184 24.827939,19.648593 58.375551,30.120622 7.11144,2.199039 13.38587,4.39707 13.96767,4.913656 0.51864,0.453312 1.55149,0.837027 2.26199,0.837027 0.64514,0 1.67514,0.322895 2.19159,0.645358 0.84127,0.516519 0.77172,0.651711 -0.19832,0.651711 -0.77585,0 -1.0934,0.380687 -0.96485,1.156535 0.19377,1.163827 3.36132,2.200246 9.43756,3.041515 2.7133,0.387873 3.35454,0.264514 3.35454,-0.511208 0,-1.033133 -1.87287,-1.75075 -4.65174,-1.75075 -1.03301,0 -1.80823,-0.322893 -1.80823,-0.645367 0,-0.387941 0.65601,-0.526849 1.49521,-0.396121 0.77582,0.19413 3.47978,0.647795 5.93587,1.098992 5.81897,0.969824 7.44387,1.616316 7.44387,2.8434 0,1.357698 1.73933,1.941023 2.90103,0.971134 0.64721,-0.581837 0.97118,-0.576117 0.97118,-0.05775 0,0.385864 0.31633,0.709244 0.63894,0.709244 0.38793,0 0.65815,-0.452582 0.65815,-0.971152 0,-1.227093 -0.65575,-1.235201 10.2042,0.447266 6.46415,0.969779 8.85458,1.62622 7.88481,1.948797 -2.06617,0.77587 -0.89664,1.808289 2.01276,1.808289 1.4862,0 2.51748,0.321227 2.51748,0.709194 0,0.581906 1.48397,0.649139 5.16926,0.389801 3.36058,-0.259185 5.30598,-0.197676 5.56537,0.255558 0.25697,0.387942 1.3537,0.57737 2.51738,0.383389 1.09842,-0.193693 4.13158,0.073 6.58775,0.523953 6.46408,1.229166 23.85201,2.201247 62.76532,3.559024 62.89118,2.19685 108.73107,6.907501 125.92658,12.983724 7.62568,2.713341 19.13106,8.537771 21.26462,10.734571 3.36059,3.55473 4.38781,6.46407 3.99991,11.24575 -0.1942,2.39298 -0.1942,4.52789 0,4.72193 1.87642,1.87634 6.01904,-1.81269 6.01904,-5.36726 0,-0.71267 1.34692,-2.45612 3.09254,-3.94237 6.97859,-6.14158 8.01956,-9.56811 7.24583,-23.596952 -0.51862,-9.436848 -0.65003,-10.083611 -4.84979,-23.916362 -5.49426,-18.099942 -6.78073,-20.878108 -13.37342,-27.858768 -7.75654,-8.144433 -14.80734,-12.80011 -24.44034,-16.09542 -2.32547,-0.775849 -7.24149,-2.583133 -10.99007,-4.006277 -5.23505,-2.066166 -8.98516,-2.971778 -16.61306,-4.070179 -10.79462,-1.551746 -33.99855,-2.646566 -41.23854,-1.936062 -2.58488,0.259471 -12.929,0.0013 -24.24226,-0.709267 -12.86076,-0.710504 -20.74493,-0.973627 -22.61925,-0.58785 -1.61505,0.324836 -4.39322,0.580021 -6.2043,0.645359 -2.65021,0 -3.87824,0.389889 -6.14046,2.070231 -2.6502,1.939699 -4.52885,2.521602 -11.89745,3.750743 -11.89311,1.939648 -19.58529,3.487151 -22.81742,4.587735 -2.52141,0.904445 -6.65506,1.48422 -13.05389,1.872185 -17.51803,1.098394 -27.47013,2.009337 -29.66704,2.721942 -1.4883,0.451157 -7.18105,0.577349 -16.68329,0.383392 -11.57039,-0.259475 -14.53593,-0.128913 -15.11775,0.581413 -0.58195,0.645182 -0.32493,0.843456 1.22678,0.843456 3.81392,0 37.88092,2.650719 38.20358,2.971141 0.3244,0.32488 -5.75598,0.06349 -23.14328,-1.03508 -5.10845,-0.324807 -9.63247,-0.392026 -9.95503,-0.198329 -1.22915,0.775897 -10.41126,0.64887 -19.20082,-0.255592 -10.8578,-1.098445 -21.32539,-2.911082 -31.02162,-5.36724 -4.52446,-1.098492 -9.82926,-1.933836 -13.57786,-2.127775 -6.915352,-0.322534 -14.289253,-2.72012 -24.695938,-7.955085 -6.852025,-3.426024 -7.622788,-3.55193 -7.622788,-0.773118 V 16.81506 L 71.752207,14.240059 C 70.5884,12.88231 69.177628,10.676333 68.595726,9.3839505 67.431922,6.9277647 63.094044,2.4699309 62.448901,3.0518356 Z m 9.661132,67.2316075 c -12.011135,0.567128 -23.058151,9.91909 -30.989648,26.619132 -4.718456,10.018681 -5.553753,13.901441 -5.87851,27.219781 -0.256946,10.46991 -0.13775,12.60851 1.348264,21.33495 3.168762,18.16322 4.00619,20.28988 10.664245,26.81723 7.046054,6.98275 24.5699,16.5503 34.331451,18.74709 3.360643,0.71265 7.305087,1.62485 8.728219,2.01275 5.428916,1.35786 12.861662,1.86208 31.347422,2.12133 17.7753,0.32259 19.26363,0.2629 21.65444,-0.90086 1.6804,-0.83909 5.23851,-1.48631 10.34488,-1.8722 4.26502,-0.3879 8.78328,-0.97307 10.01245,-1.36102 1.22706,-0.32247 3.87702,-0.65171 5.81455,-0.65171 2.00501,0 4.0145,-0.37878 4.40252,-0.76677 1.54949,-1.54954 8.91521,-3.17104 15.96118,-3.55893 3.94254,-0.19376 7.63375,-0.57631 8.28098,-0.90104 2.13153,-1.16164 1.09304,-1.81283 -2.39613,-1.42493 -2.00287,0.1942 -3.94113,0.0689 -4.65164,-0.3192 -1.03519,-0.64725 -0.71832,-0.70781 1.73798,-0.77327 1.61506,0 4.78553,-0.19433 7.04773,-0.45359 3.48931,-0.3226 3.88353,-0.5227 2.91369,-1.23322 -2.39086,-1.74566 -0.32066,-2.19795 10.40866,-2.19795 9.63089,0 12.4095,-0.45425 9.56529,-1.55266 -0.57967,-0.19378 -2.9822,-0.45374 -5.30975,-0.45374 -2.3909,-0.0636 -3.42284,-0.25413 -2.38978,-0.31928 1.09848,-0.12674 3.43546,-0.57844 5.30982,-0.90098 1.81105,-0.39009 13.18329,-0.84266 25.20702,-0.97121 12.02173,-0.12872 22.22992,-0.26062 22.68321,-0.32589 0.58182,0 0.71081,-0.45589 0.45366,-1.29703 -0.25921,-0.90659 -0.12943,-1.28437 0.5814,-1.28437 0.51649,0 1.75212,-1.03277 2.72206,-2.26192 1.93748,-2.51934 2.4493,-2.39651 3.29064,0.90091 l 0.58134,2.13422 4.65171,0.19786 c 3.68536,0.12879 4.91768,-0.0651 6.14684,-0.97119 0.839,-0.64516 2.57969,-1.36371 3.87208,-1.62296 l 2.39617,-0.45367 -0.38346,3.75706 c -0.38789,3.03601 -0.31989,3.62035 0.45365,3.36099 0.51865,-0.19376 2.5707,-0.71598 4.63888,-1.16929 l 3.6932,-0.70922 -1.42482,-1.87853 c -0.90653,-1.03528 -2.5839,-2.06143 -4.07022,-2.44732 l -2.58146,-0.6581 3.87218,-0.12136 a 101.45256,101.45256 0 0 1 6.33209,0 c 1.35773,0.0636 2.3961,-0.18934 2.3961,-0.57508 0,-0.38787 -0.38522,-0.71634 -0.77313,-0.77953 -0.45322,-0.0658 -1.87199,-0.13886 -3.09893,-0.20475 -1.227,-0.12666 -3.3012,-0.83573 -4.53029,-1.54627 -1.22709,-0.7759 -2.77902,-1.41208 -3.36087,-1.41208 -0.64722,0 -1.16292,-0.33553 -1.16292,-0.65817 0,-0.45325 1.94116,-0.6397 5.36722,-0.51115 5.23491,0.19366 5.30113,0.19039 5.49507,1.93612 0.25952,2.00283 0.25699,2.00458 1.68049,1.42484 a 1.0499456,1.0499456 0 0 0 0.63898,-1.22676 c -0.3879,-1.03314 0.78101,-1.88054 1.75079,-1.23334 0.38568,0.19416 1.93776,0.4529 3.36081,0.5816 3.48937,0.19411 20.48532,1.55299 24.8813,2.00621 2.32542,0.25697 3.36084,0.64992 3.36084,1.29715 0,1.09849 0.78108,1.15523 1.75073,0.18517 0.51654,-0.5166 3.03609,-0.44135 9.17553,0.14058 7.49934,0.71049 8.47267,0.89512 8.47267,1.99364 0,0.7758 0.44707,1.16991 1.48236,1.23318 0.77579,0 3.49253,0.25803 5.94877,0.51752 2.52149,0.2595 4.90912,0.38354 5.29694,0.19166 0.45122,-0.13082 1.8768,-2.06496 3.16936,-4.26186 2.52147,-4.20178 4.66015,-6.86244 5.50137,-6.86244 0.32254,0 0.37774,0.46111 0.18502,0.97761 -0.25945,0.51661 -0.063,0.97126 0.32586,0.97126 0.45336,0 0.71009,0.51708 0.58144,1.09905 -0.12903,0.77373 0.44753,1.22373 1.9361,1.54623 2.39087,0.51863 3.49564,1.2268 1.8786,1.2268 -0.5819,0 -1.10544,0.39016 -1.10544,0.84337 0,0.45329 3.81601,2.06955 9.3735,3.87855 5.94767,2.00289 9.37359,3.42439 9.37359,4.00634 0,0.64521 -2.00135,0.19341 -7.55883,-1.68045 -13.18495,-4.52453 -18.93244,-5.49541 -18.93244,-3.23322 0,0.96981 1.0264,1.4241 6.00616,2.5879 3.22998,0.77571 6.33108,1.35456 6.84977,1.35456 0.45115,0 1.68045,0.71355 2.71554,1.55261 1.03304,0.90656 6.19647,3.03724 11.88466,4.91368 5.75572,1.93965 10.86868,4.00701 11.90395,4.91364 1.03287,0.83906 2.84308,2.00238 4.07012,2.45353 4.07327,1.74573 9.89138,6.9801 14.2872,12.8623 6.33557,8.53246 6.27085,8.21069 2.77943,8.21069 -1.61502,0 -6.20899,-0.45256 -10.21695,-0.97124 -4.0059,-0.51648 -9.04598,-0.96975 -11.17541,-1.03507 -4.52665,-0.12923 -41.50145,0.58827 -55.33418,1.0415 l -9.3799,0.31967 -1.48245,-3.16929 c -0.83902,-1.74569 -3.23363,-4.84386 -5.36726,-6.97749 -3.68325,-3.62 -3.87428,-3.68917 -4.71551,-2.45994 -0.51649,0.71054 -2.45786,3.42712 -4.33219,5.94861 l -3.42484,4.7156 -4.19798,0.13421 c -2.32753,0 -4.72358,0.0658 -5.30343,0 -1.42294,-0.12709 -1.48487,0.64213 -0.19166,3.03506 l 0.90097,1.80834 -6.58763,0.46007 c -17.97137,1.2269 -56.10816,5.94167 -68.90571,8.594 -2.84628,0.5818 -8.8582,1.03557 -14.28715,1.09897 -9.69835,0.1291 -10.60141,0.38774 -16.74078,3.94241 -1.10057,0.58189 -1.94622,0.71378 -2.72205,0.32588 -0.71045,-0.45321 -1.35481,-0.32619 -1.80823,0.2556 -0.71049,0.839 -3.03701,1.22404 -20.10177,3.03502 -3.74852,0.38792 -10.013,1.23324 -14.01883,1.87861 -6.9828,1.1637 -7.3772,1.1637 -11.06042,0 -3.87992,-1.2272 -15.96255,-2.84854 -26.30604,-3.55905 l -5.82095,-0.45366 -3.4184,3.09898 c -1.93965,1.68031 -4.59593,4.59199 -6.019,6.46631 -1.93968,2.65009 -2.97105,3.50152 -4.19811,3.50152 -2.65004,0 -26.248949,3.67588 -43.379042,6.77936 -18.485805,3.36055 -25.458489,4.01418 -30.887401,2.9136 -5.625042,-1.16154 -5.696925,-1.23337 -5.437628,-8.34484 0.256974,-6.0108 0.197445,-6.20162 -1.354568,-6.97744 -3.554626,-1.80899 -6.976056,-0.77708 -11.629095,3.42478 -1.096342,0.96982 -2.393347,1.41854 -4.204369,1.41854 -1.486368,-0.064 -4.200626,0.64512 -6.332112,1.68053 l -3.814617,1.7507 0.191923,3.36094 c 0.126698,1.80895 -0.07192,3.94049 -0.46,4.5877 -0.516588,0.77591 -0.642709,4.20288 -0.383395,9.89116 0.259475,6.91523 0.06546,9.43774 -0.837083,12.79845 L 11,278.87305 l 3.098923,4.39602 c 6.204816,8.72637 10.606754,15.38066 10.606754,16.08906 0,0.39003 1.929206,2.46266 4.383316,4.5942 10.668124,9.37363 15.195049,11.89643 25.66709,14.09554 11.117167,2.39076 12.928766,2.25818 19.846105,-1.42487 3.166718,-1.74591 6.852929,-4.14521 8.210677,-5.43772 1.680317,-1.55174 6.46426,-4.06698 15.641824,-8.14033 14.285991,-6.33341 16.089041,-7.04555 16.089041,-6.20429 0,0.25697 0.90585,8.98024 2.00635,19.25831 2.26222,21.58924 2.97611,42.27448 2.00628,58.17753 -0.77582,12.47491 -1.35501,14.2135 -10.14659,30.75959 -13.638817,25.66243 -29.991348,50.49301 -42.337671,64.26043 -2.198982,2.52156 -5.556829,6.8489 -7.43113,9.69305 -3.554612,5.36351 -10.151848,12.54777 -18.363776,19.91639 -2.776671,2.51944 -4.590041,4.64625 -4.396071,5.1628 0.193693,0.51648 2.204086,1.55011 4.466336,2.32578 2.196894,0.83914 4.327628,1.75197 4.715539,2.07665 1.033133,1.03306 2.32151,0.63829 7.10531,-1.94877 l 4.651597,-2.58141 1.878569,1.29707 c 2.262252,1.48627 6.337319,1.60568 9.763353,0.31303 1.357743,-0.51645 4.077871,-1.09177 6.082881,-1.22044 4.005826,-0.38786 6.58586,-1.48344 10.785724,-4.71553 1.551685,-1.16366 3.560365,-2.26027 4.530232,-2.51749 1.876398,-0.38784 18.096667,-16.8209 26.759747,-27.16227 2.71339,-3.16663 9.49988,-10.33771 15.18803,-15.89736 7.95051,-7.88511 11.50714,-10.85597 16.03163,-13.57157 6.52732,-3.87941 11.6995,-8.59263 12.34475,-11.37351 0.25923,-0.96976 1.09477,-2.97996 1.93593,-4.46637 2.00305,-3.42601 4.26877,-12.2095 3.68693,-14.40856 -0.19377,-0.90441 -1.16426,-3.10044 -2.13415,-4.9136 -1.68032,-2.97273 -1.80525,-4.00574 -2.12772,-12.28086 -0.58193,-14.54326 -2.90602,-22.16964 -10.27452,-33.60941 -4.26523,-6.59264 -5.30493,-8.92401 -7.95509,-17.45649 -4.39583,-14.67391 -5.6857,-28.44401 -3.48875,-39.23853 1.03314,-5.36574 1.54577,-6.08102 5.87846,-8.60042 2.26006,-1.35785 5.24118,-3.49134 6.66436,-4.78592 l 2.64532,-2.44716 12.54284,-1.42482 c 6.91528,-0.83912 14.66794,-1.87326 17.1242,-2.38976 2.52152,-0.51658 8.07744,-1.67857 12.34469,-2.51752 4.3305,-0.90652 10.4794,-2.45996 13.6483,-3.49516 3.16664,-1.09831 7.62097,-2.39508 9.94854,-2.91374 4.52453,-1.03288 19.96866,-2.51213 20.48516,-1.99345 0.19377,0.19366 0.38911,9.43608 0.32584,20.5554 0,17.45057 -0.19366,22.17135 -1.68051,35.03427 -2.52148,22.04256 -3.03958,28.95275 -3.68677,53.25748 -0.5818,24.17403 -0.7646,25.27018 -4.70912,28.11428 -2.84412,2.06827 -5.75336,1.68619 -14.35106,-2.12778 -4.26506,-1.87645 -13.25113,-5.56541 -20.03789,-8.28086 -6.72339,-2.71558 -16.29408,-6.90615 -21.1432,-9.29695 -4.91244,-2.45619 -8.91986,-4.2769 -8.91986,-4.08294 0,0.19414 2.45048,3.36452 5.48852,7.04778 3.03606,3.68528 5.49521,6.84741 5.49521,7.04136 0,0.19417 -0.57239,0.39617 -1.34831,0.39617 -1.16377,0 -1.23666,0.12799 -0.33219,1.3545 0.58182,0.83918 0.78182,2.13099 0.58781,3.48874 -0.25924,1.74589 -0.0705,2.33448 1.22038,3.17567 0.84343,0.5819 2.20672,2.19341 3.04791,3.61655 0.77587,1.35572 2.13204,3.09915 2.97113,3.74434 0.84333,0.64712 2.0669,2.20202 2.77949,3.43113 0.64513,1.22722 2.84323,3.48336 4.91363,5.03512 2.0661,1.55159 4.06774,3.5612 4.4535,4.40248 0.38803,0.96966 2.26949,2.3881 4.46645,3.48866 5.10628,2.58487 12.60006,9.17543 13.82712,12.08278 0.7126,1.8111 2.13801,3.2332 6.27459,5.94872 3.29743,2.1969 9.11382,7.24091 15.57792,13.64182 11.76438,11.63377 12.40633,12.0193 21.97391,11.43744 6.20476,-0.45111 9.31111,-1.61672 12.99647,-4.97747 1.48626,-1.35788 3.29517,-2.77494 3.94242,-3.16286 0.64504,-0.38797 2.25948,-2.25837 3.48872,-4.19797 1.22695,-2.003 3.10029,-4.07619 4.07011,-4.65804 2.71553,-1.61502 7.56534,-8.47381 7.56534,-10.6707 0,-3.23206 1.2278,-5.29109 5.49507,-9.29695 3.74858,-3.49139 4.52851,-4.66354 6.85613,-10.41504 3.61993,-8.79165 4.90629,-14.47528 6.0701,-25.78848 1.42112,-13.96127 1.29532,-30.83116 -0.31934,-41.36643 -2.65009,-17.1955 -12.73147,-65.09508 -15.7696,-74.66259 -2.52147,-7.94841 -4.9136,-18.28991 -4.9136,-21.26476 0,-0.71045 1.34924,-0.77834 6.65155,-0.45364 4.84924,0.3226 8.66369,0.19587 14.22328,-0.64538 6.59272,-0.96969 8.85713,-1.0306 15.83989,-0.38336 4.45907,0.38794 8.26738,0.83479 8.39596,1.02874 0.51652,0.45115 10.47914,32.8376 12.15947,39.43032 3.49133,13.51016 3.55781,14.48564 4.26832,48.48452 0.32252,17.77523 0.64237,38.84563 0.77302,46.86139 0.1292,13.50798 0.257,14.99117 1.8722,20.93885 2.06834,7.56247 4.33081,12.47731 8.98384,19.2007 1.87651,2.65025 4.72142,7.30821 6.33853,10.28094 3.23205,6.01289 7.43764,10.98131 12.86863,15.1178 7.10933,5.49433 14.01988,9.95783 18.28715,11.89746 5.10631,2.32552 9.24265,6.01189 13.31601,11.76342 1.68036,2.32755 4.06837,5.49663 5.36084,7.11155 1.29232,1.61696 2.91028,4.07202 3.62284,5.49503 1.22705,2.58479 1.61137,2.84329 8.59408,4.91366 3.23005,0.96764 12.14642,1.1587 17.1242,0.31963 2.77872,-0.45539 3.82612,-1.10048 8.28731,-5.43116 6.00872,-5.81902 8.84964,-9.88889 8.84964,-12.7984 0,-4.52448 0.64044,-5.87844 3.29068,-6.91358 1.68252,-0.64723 2.52385,-1.42227 2.52385,-2.19803 0,-4.07322 -4.26726,-20.49896 -6.46632,-24.76607 -1.42104,-2.84419 -19.96698,-27.91447 -35.54535,-48.14585 -16.54825,-21.39532 -22.37097,-30.70727 -25.79503,-40.79141 -1.09832,-3.42389 -5.22753,-26.88905 -7.81441,-45.18094 -1.87437,-13.12216 -5.49995,-26.11476 -11.18822,-40.52934 -1.93965,-4.9124 -3.29593,-8.91346 -2.9712,-8.91346 1.54968,0 34.84108,9.30468 36.7787,10.27443 1.22906,0.64724 6.26875,3.35458 11.11787,6.07013 4.84916,2.77891 9.56319,4.98394 10.40238,4.98394 0.96968,0 5.04134,2.25662 9.82719,5.4887 l 8.2106,5.49506 4.26832,-0.32588 c 6.1394,-0.58177 7.29781,-0.83622 9.88471,-2.64523 3.68541,-2.52164 5.88903,-2.91066 8.79854,-1.55271 5.62286,2.65013 9.50044,3.10012 6.07649,0.70922 -5.10637,-3.55666 -5.62431,-5.3021 -2.65164,-9.76326 3.55674,-5.4289 3.93958,-5.81252 7.62278,-7.68679 5.88226,-2.97269 6.27311,-3.67798 8.21069,-14.28085 0.90652,-5.16952 2.12669,-10.22541 2.64534,-11.25839 1.48633,-3.10353 1.17119,-5.0978 -1.34834,-7.48865 -1.29428,-1.22915 -3.43291,-4.01329 -4.85606,-6.14684 -2.00282,-3.10345 -2.575,-4.58742 -2.575,-6.84963 0,-2.52155 -0.26617,-3.0342 -2.1405,-4.19804 a 27.648572,27.648572 0 0 0 -4.59414,-2.26199 c -2.77882,-0.96964 -7.10571,-5.55721 -6.52386,-6.84951 a 48.81825,48.81825 0 0 0 0.71575,-1.75087 c 0.51859,-1.29224 -4.7259,-4.13814 -9.89751,-5.36731 -5.16961,-1.22687 -5.10256,-1.22867 -4.19801,-2.26187 0.45328,-0.58183 0.44465,-2.58353 0.0578,-6.33211 -1.9403,-17.70998 -9.10819,-30.11869 -21.06658,-36.3889 -2.5848,-1.35773 -4.84953,-2.71956 -5.04148,-3.10528 -1.22907,-1.87643 -16.47947,-7.69387 -24.88115,-9.43755 -2.65018,-0.51644 -7.89325,-1.80238 -11.64193,-2.90085 -3.74846,-1.0331 -9.49514,-2.14231 -12.85584,-2.53026 -9.63073,-0.90658 -22.62667,-3.10222 -26.89383,-4.45995 -2.13366,-0.64722 -7.1725,-1.80701 -11.24582,-2.51747 -4.07119,-0.77594 -7.56094,-1.61358 -7.75699,-1.93612 -0.257,-0.38795 -1.80883,-0.33042 -3.94242,0.0578 -2.45404,0.45329 -6.13803,0.45905 -11.95498,-0.0578 -4.5898,-0.45327 -15.97056,-0.72147 -25.21336,-0.65812 -14.22063,0.0658 -18.10126,-0.12059 -25.34119,-1.28437 -4.6531,-0.77575 -10.91841,-1.36098 -13.89114,-1.36098 -7.11129,-0.0658 -28.06319,-2.19283 -24.3124,-2.51743 0.58176,0 2.52316,-0.38529 4.33211,-0.77322 2.97268,-0.64724 3.16971,-0.78413 2.58781,-2.07661 -0.64511,-1.35776 -0.96431,-1.41999 -10.07647,-1.35456 -7.75859,0 -9.5712,0.20254 -10.15303,1.04148 -0.6452,0.84122 -1.29642,0.89993 -4.1406,0.38343 -3.03595,-0.64513 -3.23173,-0.77694 -2.26189,-1.55277 1.03305,-0.7758 1.03718,-0.97074 0.19833,-1.55271 -0.51859,-0.32246 -1.42438,-0.6517 -2.00629,-0.6517 -0.84111,0 -41.24432,-4.00712 -58.04978,-5.75064 -3.29737,-0.38793 -6.20192,-0.76937 -6.39589,-1.02875 -0.19376,-0.19362 0.12707,-0.32587 0.70925,-0.32587 0.64722,0 1.09898,-0.25853 1.09898,-0.58136 0,-0.96991 -3.28789,-1.22601 -7.81456,-0.51767 -3.16661,0.45335 -4.85603,0.45269 -5.89115,-0.064 -1.22704,-0.51854 -0.83212,-0.57874 1.94874,-0.3195 6.1395,0.64515 3.54409,-0.84511 -2.91993,-1.6229 -3.49137,-0.45125 -7.10818,-0.90662 -8.0127,-1.0352 a 10.246457,10.246457 0 0 1 -2.90723,-0.96489 c -0.64518,-0.3879 -7.75581,-1.61075 -15.76956,-2.70913 -8.01587,-1.09842 -17.006192,-2.72484 -20.044239,-3.6293 -10.472193,-2.97269 -20.094868,-7.82267 -25.654466,-12.798316 l -2.913719,-2.574993 1.035147,-2.459994 c 2.131501,-5.106372 4.852431,-8.081112 9.699464,-10.408699 6.658047,-3.232035 9.698054,-3.752538 22.689514,-4.140518 11.827699,-0.256955 14.609829,-0.774069 13.252139,-2.325772 -0.64736,-0.906544 -9.95165,-2.32585 -14.606758,-2.32585 -2.909455,0 -10.152968,-1.421266 -16.811034,-3.360889 A 25.841736,25.841736 0 0 0 72.110765,70.284144 Z M 258.69358,132.48045 a 6.432498,6.432498 0 0 0 -1.42498,0.10883 c -3.81617,0.64707 -6.0111,1.54783 -7.94867,3.16278 l -1.93606,1.55276 3.10541,0.0709 c 3.29745,0 5.03813,-0.64795 7.43105,-2.77941 1.50325,-1.35782 1.76833,-2.03064 0.77325,-2.11497 z m 121.77966,20.05068 c 0.80742,-0.0487 1.7192,0.1923 3.43124,0.67722 1.93962,0.58194 4.06399,0.84368 4.7092,0.65181 0.64715,-0.19623 1.42112,-0.0705 1.68043,0.38333 0.32255,0.58187 -0.63996,0.64843 -3.87208,0.32592 -2.84411,-0.32459 -4.26826,-0.26818 -4.26826,0.18501 0,0.38782 0.77507,0.84748 1.8082,1.0415 4.71844,1.0331 5.49193,1.55085 1.41847,1.16285 -2.3255,-0.25949 -5.81732,-0.44581 -7.75696,-0.5112 -3.36064,0 -3.55031,0.0638 -3.74433,1.68049 -0.19365,1.48642 -0.64577,1.80005 -3.81452,2.44732 -4.32843,0.83903 -3.7454,0.90487 -6.97745,-0.58148 -2.90954,-1.42106 -9.3122,-2.97096 -17.26484,-4.19798 -2.97269,-0.45333 -4.45356,-0.83558 -3.41837,-0.90097 1.09837,0 7.04515,0.64821 13.252,1.55262 11.50509,1.61713 14.73573,1.93732 14.02516,1.22682 -0.19365,-0.19366 -5.23484,-1.36006 -11.24567,-2.52388 l -10.86234,-2.13417 6.3385,-0.0709 c 5.55958,-0.0636 6.53032,0.13838 8.21068,1.3674 1.4232,1.033 2.12882,1.22779 2.64534,0.70925 0.45321,-0.45112 2.38665,-0.59226 5.42473,-0.39622 4.07122,0.32253 5.1753,0.20054 7.4375,-1.02866 1.32394,-0.67894 2.03374,-1.01864 2.84337,-1.06707 z m -91.63988,10.81111 c 0.32035,-0.009 0.60011,0.0489 0.76034,0.21122 0.26143,0.19365 0.006,0.64222 -0.51118,0.9648 -1.22689,0.77593 -1.75179,0.7808 -2.26833,0.0709 -0.29076,-0.53344 1.05571,-1.20806 2.01917,-1.23964 z m 105.14116,1.89781 c 0.1194,-0.0425 0.33416,0.2228 0.72201,0.77311 0.45117,0.58198 1.41668,1.09907 2.06391,1.09907 1.03299,0 1.10737,0.12227 0.26843,0.63893 -0.51651,0.3226 -1.10309,0.58149 -1.29704,0.58149 -1.29257,-0.12878 -1.93605,-0.90017 -1.93605,-2.06393 0.0298,-0.64513 0.0578,-0.98858 0.17929,-1.02867 z m -83.31423,3.80813 c -1.29254,0 -2.19164,1.09372 -2.19164,2.64534 0,0.32267 1.48181,0.5815 3.2906,0.5815 3.10354,0 3.23588,-0.0597 2.46017,-1.09268 -1.29244,-1.68037 -2.0728,-2.13416 -3.55913,-2.13416 z m 130.50801,38.59339 c 0.45323,-0.19366 1.55548,0.24918 2.45996,0.89451 1.4231,1.09835 1.42595,1.23473 0.26202,1.1693 -1.80491,0 -3.86671,-1.60641 -2.72196,-2.06381 z" /></g></svg>
